<svg width="2125" height="1736" viewBox="0 0 2125 1736" fill="none" xmlns="http://www.w3.org/2000/svg">
<path d="M40 89C40 87.8955 40.8954 87 42 87H2083C2084.1 87 2085 87.8954 2085 89V1575C2085 1576.1 2084.1 1577 2083 1577H42C40.8954 1577 40 1576.1 40 1575V89Z" fill="white"/>
<path d="M42 88H2083V86H42V88ZM2084 89V1575H2086V89H2084ZM2083 1576H42V1578H2083V1576ZM41 1575V89H39V1575H41ZM42 1576C41.4477 1576 41 1575.55 41 1575H39C39 1576.66 40.3431 1578 42 1578V1576ZM2084 1575C2084 1575.55 2083.55 1576 2083 1576V1578C2084.66 1578 2086 1576.66 2086 1575H2084ZM2083 88C2083.55 88 2084 88.4477 2084 89H2086C2086 87.3431 2084.66 86 2083 86V88ZM42 86C40.3431 86 39 87.3432 39 89H41C41 88.4477 41.4477 88 42 88V86Z" fill="black" fill-opacity="0.1"/>
<g filter="url(#filter0_f_1_2)">
<ellipse cx="1177.03" cy="829.327" rx="433.163" ry="442.609" transform="rotate(-41.162 1177.03 829.327)" fill="url(#paint0_linear_1_2)"/>
</g>
<g style="mix-blend-mode:overlay" filter="url(#filter1_f_1_2)">
<ellipse cx="951.311" cy="849.578" rx="388.481" ry="396.953" transform="rotate(15.4035 951.311 849.578)" fill="url(#paint1_linear_1_2)"/>
</g>
<rect x="40" y="51" width="55.2812" height="30" rx="3" fill="white"/>
<rect x="40.5" y="51.5" width="54.2812" height="29" rx="2.5" stroke="black" stroke-opacity="0.14902"/>
<path d="M49.2656 71.375C48.8203 71.375 48.4375 71.3177 48.1172 71.2031C47.7969 71.0911 47.5299 70.9427 47.3164 70.7578C47.1055 70.5755 46.9375 70.3802 46.8125 70.1719L47.5469 69.6563C47.6302 69.7656 47.7357 69.8906 47.8633 70.0312C47.9909 70.1745 48.1654 70.2982 48.3867 70.4023C48.6107 70.5091 48.9036 70.5625 49.2656 70.5625C49.75 70.5625 50.1497 70.4453 50.4648 70.2109C50.7799 69.9766 50.9375 69.6094 50.9375 69.1094V67.8906H50.8594C50.7917 68 50.6953 68.1354 50.5703 68.2969C50.4479 68.4557 50.2708 68.5977 50.0391 68.7227C49.8099 68.8451 49.5 68.9062 49.1094 68.9062C48.625 68.9062 48.1901 68.7917 47.8047 68.5625C47.4219 68.3333 47.1185 68 46.8945 67.5625C46.6732 67.125 46.5625 66.5937 46.5625 65.9687C46.5625 65.3542 46.6706 64.819 46.8867 64.3633C47.1029 63.9049 47.4036 63.5508 47.7891 63.3008C48.1745 63.0482 48.6198 62.9219 49.125 62.9219C49.5156 62.9219 49.8255 62.987 50.0547 63.1172C50.2865 63.2448 50.4635 63.3906 50.5859 63.5547C50.7109 63.7161 50.8073 63.849 50.875 63.9531H50.9688V63H51.8594V69.1719C51.8594 69.6875 51.7422 70.1068 51.5078 70.4297C51.276 70.7552 50.9635 70.9935 50.5703 71.1445C50.1797 71.2982 49.7448 71.375 49.2656 71.375ZM49.2344 68.0781C49.6042 68.0781 49.9167 67.9935 50.1719 67.8242C50.4271 67.6549 50.6211 67.4115 50.7539 67.0938C50.8867 66.776 50.9531 66.3958 50.9531 65.9531C50.9531 65.5208 50.888 65.1393 50.7578 64.8086C50.6276 64.4779 50.4349 64.2187 50.1797 64.0312C49.9245 63.8437 49.6094 63.75 49.2344 63.75C48.8438 63.75 48.5182 63.849 48.2578 64.0469C48 64.2448 47.806 64.5104 47.6758 64.8438C47.5482 65.1771 47.4844 65.5469 47.4844 65.9531C47.4844 66.3698 47.5495 66.7383 47.6797 67.0586C47.8125 67.3763 48.0078 67.6263 48.2656 67.8086C48.526 67.9883 48.849 68.0781 49.2344 68.0781ZM53.5469 69V63H54.4375V63.9062H54.5C54.6094 63.6094 54.8073 63.3685 55.0938 63.1836C55.3802 62.9987 55.7031 62.9062 56.0625 62.9062C56.1302 62.9062 56.2148 62.9076 56.3164 62.9102C56.418 62.9128 56.4948 62.9167 56.5469 62.9219V63.8594C56.5156 63.8516 56.444 63.8398 56.332 63.8242C56.2227 63.806 56.1068 63.7969 55.9844 63.7969C55.6927 63.7969 55.4323 63.8581 55.2031 63.9805C54.9766 64.1003 54.7969 64.2669 54.6641 64.4805C54.5339 64.6914 54.4688 64.9323 54.4688 65.2031V69H53.5469ZM59.4053 69.1406C59.0251 69.1406 58.68 69.069 58.3701 68.9258C58.0602 68.7799 57.8141 68.5703 57.6318 68.2969C57.4495 68.0208 57.3584 67.6875 57.3584 67.2969C57.3584 66.9531 57.4261 66.6745 57.5615 66.4609C57.6969 66.2448 57.8779 66.0755 58.1045 65.9531C58.3311 65.8307 58.5811 65.7396 58.8545 65.6797C59.1305 65.6172 59.4079 65.5677 59.6865 65.5313C60.0511 65.4844 60.3467 65.4492 60.5732 65.4258C60.8024 65.3997 60.9691 65.3568 61.0732 65.2969C61.18 65.237 61.2334 65.1328 61.2334 64.9844V64.9531C61.2334 64.5677 61.1279 64.2682 60.917 64.0547C60.7087 63.8411 60.3923 63.7344 59.9678 63.7344C59.5277 63.7344 59.1826 63.8307 58.9326 64.0234C58.6826 64.2161 58.5068 64.4219 58.4053 64.6406L57.5303 64.3281C57.6865 63.9635 57.8949 63.6797 58.1553 63.4766C58.4183 63.2708 58.7048 63.1276 59.0146 63.0469C59.3271 62.9635 59.6344 62.9219 59.9365 62.9219C60.1292 62.9219 60.3506 62.9453 60.6006 62.9922C60.8532 63.0365 61.0967 63.1289 61.3311 63.2695C61.568 63.4102 61.7646 63.6224 61.9209 63.9062C62.0771 64.1901 62.1553 64.5703 62.1553 65.0469V69H61.2334V68.1875H61.1865C61.124 68.3177 61.0199 68.457 60.874 68.6055C60.7282 68.7539 60.5342 68.8802 60.292 68.9844C60.0498 69.0885 59.7542 69.1406 59.4053 69.1406ZM59.5459 68.3125C59.9105 68.3125 60.2178 68.2409 60.4678 68.0977C60.7204 67.9544 60.9105 67.7695 61.0381 67.543C61.1683 67.3164 61.2334 67.0781 61.2334 66.8281V65.9844C61.1943 66.0312 61.1084 66.0742 60.9756 66.1133C60.8454 66.1497 60.6943 66.1823 60.5225 66.2109C60.3532 66.237 60.1878 66.2604 60.0264 66.2812C59.8675 66.2995 59.7386 66.3151 59.6396 66.3281C59.4001 66.3594 59.1761 66.4102 58.9678 66.4805C58.762 66.5482 58.5954 66.651 58.4678 66.7891C58.3428 66.9245 58.2803 67.1094 58.2803 67.3437C58.2803 67.6641 58.3988 67.9062 58.6357 68.0703C58.8753 68.2318 59.1787 68.3125 59.5459 68.3125ZM66.1035 69.125C65.6035 69.125 65.1621 68.9987 64.7793 68.7461C64.3965 68.4909 64.097 68.1315 63.8809 67.668C63.6647 67.2018 63.5566 66.651 63.5566 66.0156C63.5566 65.3854 63.6647 64.8385 63.8809 64.375C64.097 63.9115 64.3978 63.5534 64.7832 63.3008C65.1686 63.0482 65.6139 62.9219 66.1191 62.9219C66.5098 62.9219 66.8184 62.987 67.0449 63.1172C67.2741 63.2448 67.4486 63.3906 67.5684 63.5547C67.6908 63.7161 67.7858 63.849 67.8535 63.9531H67.9316V61H68.8535V69H67.9629V68.0781H67.8535C67.7858 68.1875 67.6895 68.3255 67.5645 68.4922C67.4395 68.6562 67.2611 68.8034 67.0293 68.9336C66.7975 69.0612 66.4889 69.125 66.1035 69.125ZM66.2285 68.2969C66.5983 68.2969 66.9108 68.2005 67.166 68.0078C67.4212 67.8125 67.6152 67.543 67.748 67.1992C67.8809 66.8529 67.9473 66.4531 67.9473 66C67.9473 65.5521 67.8822 65.1602 67.752 64.8242C67.6217 64.4857 67.429 64.2227 67.1738 64.0352C66.9186 63.8451 66.6035 63.75 66.2285 63.75C65.8379 63.75 65.5124 63.8503 65.252 64.0508C64.9941 64.2487 64.8001 64.5182 64.6699 64.8594C64.5423 65.1979 64.4785 65.5781 64.4785 66C64.4785 66.4271 64.5436 66.8151 64.6738 67.1641C64.8066 67.5104 65.002 67.7865 65.2598 67.9922C65.5202 68.1953 65.8431 68.2969 66.2285 68.2969ZM70.6699 69V63H71.5918V69H70.6699ZM71.1387 62C70.959 62 70.804 61.9388 70.6738 61.8164C70.5462 61.694 70.4824 61.5469 70.4824 61.375C70.4824 61.2031 70.5462 61.056 70.6738 60.9336C70.804 60.8112 70.959 60.75 71.1387 60.75C71.3184 60.75 71.472 60.8112 71.5996 60.9336C71.7298 61.056 71.7949 61.2031 71.7949 61.375C71.7949 61.5469 71.7298 61.694 71.5996 61.8164C71.472 61.9388 71.3184 62 71.1387 62ZM75.7959 69.125C75.2178 69.125 74.7191 68.9974 74.2998 68.7422C73.8831 68.4844 73.5615 68.125 73.335 67.6641C73.111 67.2005 72.999 66.6615 72.999 66.0469C72.999 65.4323 73.111 64.8906 73.335 64.4219C73.5615 63.9505 73.8766 63.5833 74.2803 63.3203C74.6865 63.0547 75.1605 62.9219 75.7021 62.9219C76.0146 62.9219 76.3232 62.974 76.6279 63.0781C76.9326 63.1823 77.21 63.3516 77.46 63.5859C77.71 63.8177 77.9092 64.125 78.0576 64.5078C78.2061 64.8906 78.2803 65.362 78.2803 65.9219V66.3125H73.6553V65.5156H77.3428C77.3428 65.1771 77.2751 64.875 77.1396 64.6094C77.0068 64.3437 76.8167 64.1341 76.5693 63.9805C76.3245 63.8268 76.0355 63.75 75.7021 63.75C75.335 63.75 75.0173 63.8411 74.749 64.0234C74.4834 64.2031 74.279 64.4375 74.1357 64.7266C73.9925 65.0156 73.9209 65.3255 73.9209 65.6562V66.1875C73.9209 66.6406 73.999 67.0247 74.1553 67.3398C74.3141 67.6523 74.5342 67.8906 74.8154 68.0547C75.0967 68.2161 75.4235 68.2969 75.7959 68.2969C76.0381 68.2969 76.2568 68.263 76.4521 68.1953C76.6501 68.125 76.8206 68.0208 76.9639 67.8828C77.1071 67.7422 77.2178 67.5677 77.2959 67.3594L78.1865 67.6094C78.0928 67.9115 77.9352 68.1771 77.7139 68.4062C77.4925 68.6328 77.2191 68.8099 76.8936 68.9375C76.568 69.0625 76.2021 69.125 75.7959 69.125ZM80.6045 65.3906V69H79.6826V63H80.5732V63.9375H80.6514C80.792 63.6328 81.0055 63.388 81.292 63.2031C81.5785 63.0156 81.9482 62.9219 82.4014 62.9219C82.8076 62.9219 83.1631 63.0052 83.4678 63.1719C83.7725 63.3359 84.0094 63.5859 84.1787 63.9219C84.348 64.2552 84.4326 64.6771 84.4326 65.1875V69H83.5107V65.25C83.5107 64.7786 83.3883 64.4115 83.1436 64.1484C82.8988 63.8828 82.5628 63.75 82.1357 63.75C81.8415 63.75 81.5785 63.8138 81.3467 63.9414C81.1175 64.069 80.9365 64.2552 80.8037 64.5C80.6709 64.7448 80.6045 65.0417 80.6045 65.3906ZM88.7266 63V63.7812H85.6172V63H88.7266ZM86.5234 61.5625H87.4453V67.2812C87.4453 67.5417 87.4831 67.737 87.5586 67.8672C87.6367 67.9948 87.7357 68.0807 87.8555 68.125C87.9779 68.1667 88.1068 68.1875 88.2422 68.1875C88.3438 68.1875 88.4271 68.1823 88.4922 68.1719C88.5573 68.1589 88.6094 68.1484 88.6484 68.1406L88.8359 68.9687C88.7734 68.9922 88.6862 69.0156 88.5742 69.0391C88.4622 69.0651 88.3203 69.0781 88.1484 69.0781C87.888 69.0781 87.6328 69.0221 87.3828 68.9102C87.1354 68.7982 86.9297 68.6276 86.7656 68.3984C86.6042 68.1693 86.5234 67.8802 86.5234 67.5312V61.5625Z" fill="black"/>
<defs>
<filter id="filter0_f_1_2" x="389.745" y="40.7771" width="1574.57" height="1577.1" filterUnits="userSpaceOnUse" color-interpolation-filters="sRGB">
<feFlood flood-opacity="0" result="BackgroundImageFix"/>
<feBlend mode="normal" in="SourceGraphic" in2="BackgroundImageFix" result="shape"/>
<feGaussianBlur stdDeviation="175" result="effect1_foregroundBlur_1_2"/>
</filter>
<filter id="filter1_f_1_2" x="262.126" y="153.119" width="1378.37" height="1392.92" filterUnits="userSpaceOnUse" color-interpolation-filters="sRGB">
<feFlood flood-opacity="0" result="BackgroundImageFix"/>
<feBlend mode="normal" in="SourceGraphic" in2="BackgroundImageFix" result="shape"/>
<feGaussianBlur stdDeviation="150" result="effect1_foregroundBlur_1_2"/>
</filter>
<linearGradient id="paint0_linear_1_2" x1="622.168" y1="201.213" x2="1475.91" y2="1797.67" gradientUnits="userSpaceOnUse">
<stop stop-color="#E2A4FF"/>
<stop offset="0.730644" stop-color="#6777FF"/>
</linearGradient>
<linearGradient id="paint1_linear_1_2" x1="453.685" y1="286.256" x2="1219.36" y2="1718.03" gradientUnits="userSpaceOnUse">
<stop offset="0.375" stop-color="#E2A4FF"/>
<stop offset="0.80604" stop-color="#3146FF"/>
</linearGradient>
</defs>
</svg>
