<svg width="40" height="40" viewBox="0 0 40 40" fill="none" xmlns="http://www.w3.org/2000/svg">
<path d="M0 34C0 37.3137 2.68629 40 6 40H34C37.3137 40 40 37.3137 40 34V6C40 2.68629 37.3137 0 34 0H6C2.68629 0 0 2.68629 0 6V34ZM19.2546 11.2937C19.3428 11.3344 19.371 11.3625 19.8752 11.8953C20.2562 12.2953 20.3211 12.3844 20.3494 12.5312C20.3611 12.5875 20.3644 13.2703 20.3627 14.4375L20.358 16.1644C20.3578 16.226 20.3453 16.287 20.3211 16.3438C20.2945 16.4031 20.1547 16.5812 19.8619 16.9297C19.4958 17.3641 19.4309 17.4328 19.3594 17.4687C19.3057 17.4945 19.247 17.5078 19.1875 17.5078H18.1936C17.8717 17.5078 17.6101 17.2484 17.6073 16.9266C17.6055 16.6054 17.864 16.3433 18.1852 16.3408L18.7592 16.3364C18.7992 16.3361 18.8373 16.3191 18.8643 16.2896C18.8884 16.2631 18.9018 16.2286 18.9018 16.1927V14.7594C18.9018 13.4641 18.8985 13.2609 18.8769 13.1906C18.8336 13.0562 18.4359 12.5297 18.3228 12.4594C18.2862 12.4359 18.2313 12.4219 18.1481 12.4141C18.0832 12.4094 17.0366 12.4062 15.827 12.4094L13.6869 12.4139C13.6468 12.414 13.6086 12.4309 13.5815 12.4606C13.5574 12.4869 13.5441 12.5214 13.5441 12.5571V16.1928C13.5441 16.2286 13.5575 16.2631 13.5816 16.2895C13.6086 16.3191 13.6467 16.3361 13.6868 16.3363L14.5574 16.3406L14.9059 16.3418C15.2293 16.3429 15.4908 16.6053 15.4908 16.9287C15.4908 17.2529 15.2281 17.5156 14.9039 17.5156H13.6815C13.6457 17.5156 13.6113 17.5296 13.5857 17.5547C13.5592 17.5786 13.5441 17.6125 13.5441 17.6482V19.2424C13.5441 19.2781 13.5592 19.3121 13.5857 19.3359C13.6173 19.3656 13.6439 19.375 13.7055 19.3766C14.1797 19.3813 14.1897 19.3813 14.2379 19.4156C14.2629 19.4328 14.2895 19.4656 14.2945 19.4859C14.3012 19.5063 14.3062 19.7187 14.3078 19.9578C14.3095 20.3062 14.3045 20.4031 14.2845 20.4469C14.2396 20.55 14.2879 20.5469 12.8652 20.5469C11.9717 20.5469 11.5691 20.5422 11.5324 20.5297C11.4343 20.4969 11.4309 20.475 11.4309 19.9453V19.5232C11.4309 19.4875 11.4461 19.4536 11.4725 19.4297C11.4975 19.4047 11.5324 19.3906 11.5674 19.3891C12.0299 19.3766 12.0499 19.3719 12.0749 19.2844C12.0915 19.2297 12.0915 12.5672 12.0749 12.5125C12.0516 12.4344 11.9967 12.4156 11.7654 12.4094C11.5308 12.4031 11.4775 12.3906 11.4493 12.3344C11.4226 12.2797 11.4226 11.3719 11.4476 11.3266C11.4942 11.2469 11.2928 11.2516 15.3744 11.2547L19.0903 11.2577C19.147 11.2578 19.203 11.2701 19.2546 11.2937ZM18.5691 14.2812C18.5691 14.6005 18.3102 14.8594 17.9909 14.8594H17.9834C17.6606 14.8594 17.3794 14.8641 17.3577 14.8687C17.2662 14.8922 17.2712 14.6734 17.2712 18.4688C17.2712 22.2641 17.2662 22.0453 17.3577 22.0688C17.3794 22.0734 17.9784 22.0781 18.6905 22.0781H19.4058C19.7248 22.0781 19.9834 22.3367 19.9834 22.6556C19.9834 22.9751 19.7241 23.2338 19.4046 23.2332L18.4908 23.2312L17.0753 23.2268C17.0236 23.2266 16.9727 23.2142 16.9268 23.1906C16.8469 23.1516 15.9101 22.1875 15.8619 22.0938C15.8336 22.0422 15.8319 21.8391 15.8319 18.4766V14.9926C15.8319 14.9409 15.8439 14.89 15.8669 14.8438C15.8869 14.8031 16.0133 14.6562 16.1647 14.5C16.3111 14.35 16.4892 14.1625 16.5624 14.0859C16.797 13.8375 16.8785 13.7625 16.9468 13.7328C17.0083 13.7062 17.0666 13.7031 17.792 13.7031H17.9909C18.3102 13.7031 18.5691 13.962 18.5691 14.2812ZM23.7454 13.7266C23.7937 13.7422 23.8519 13.7797 23.9052 13.8328C24.0965 14.0156 24.7654 14.7625 24.7987 14.8281C24.8319 14.8953 24.8336 14.9187 24.8336 15.4797V16.0061C24.8336 16.0411 24.8191 16.0745 24.7936 16.0985C24.7701 16.1205 24.7391 16.1328 24.7069 16.1328H23.5317C23.498 16.1328 23.4655 16.12 23.4409 16.0969C23.4027 16.0625 23.4027 16.0578 23.3943 15.5109C23.386 14.9438 23.381 14.9109 23.3161 14.8812C23.2995 14.8734 22.7038 14.8641 21.9917 14.8594L21.2663 14.855C20.9509 14.8531 20.6957 14.5978 20.6939 14.2824C20.692 13.963 20.9504 13.7031 21.2698 13.7031H22.1814C23.4759 13.7031 23.6805 13.7062 23.7454 13.7266ZM24.7304 17.3141C24.8502 17.3453 24.8436 17.175 24.8386 19.7375C24.8336 22.0359 24.8336 22.0391 24.7987 22.1094C24.7804 22.1484 24.609 22.3484 24.4193 22.5547C24.2296 22.7609 24.0283 22.9797 23.9717 23.0422C23.9068 23.1141 23.8386 23.1687 23.787 23.1937C23.7323 23.2205 23.6722 23.2344 23.6112 23.2344H22.6746C22.3553 23.2344 22.0965 22.9743 22.0965 22.655C22.0965 22.3371 22.3543 22.0781 22.6722 22.0781C23.3261 22.0781 23.3461 22.075 23.3777 21.9703C23.401 21.8922 23.401 18.6547 23.3777 18.5766C23.3494 18.4797 23.3428 18.4781 22.9468 18.4688C22.6938 18.4625 22.574 18.4531 22.5424 18.4391C22.4609 18.4 22.4542 18.3594 22.4542 17.8672C22.4542 17.3609 22.4576 17.3438 22.5674 17.3141C22.6439 17.2937 24.6506 17.2922 24.7304 17.3141ZM23.0616 20.0483C23.0616 20.3667 22.8048 20.6254 22.4865 20.6279L21.9063 20.6323C21.8663 20.6326 21.8283 20.6496 21.8013 20.6792C21.7771 20.7056 21.7637 20.7402 21.7637 20.776V22.5687C21.7637 23.8812 21.7687 24.4312 21.782 24.4672C21.8203 24.5687 21.6373 24.5625 24.4592 24.5625H26.961C27.0021 24.5625 27.0416 24.5469 27.0715 24.5187C27.1065 24.4844 27.1215 24.4531 27.1298 24.3891C27.1348 24.3422 27.1381 23.6641 27.1348 22.8828C27.1298 21.5703 27.1265 21.4547 27.0998 21.3797C27.0815 21.3266 27.005 21.2156 26.8918 21.0719C26.7937 20.9484 26.6905 20.8156 26.6606 20.7766C26.6306 20.7359 26.5757 20.6891 26.5358 20.6687C26.4659 20.6328 26.4559 20.6328 25.8203 20.6281L25.7495 20.6276C25.4314 20.6253 25.1747 20.3668 25.1747 20.0486C25.1747 19.7279 25.4354 19.4683 25.7561 19.4696L27.3237 19.4762C27.3822 19.4764 27.4399 19.4899 27.4925 19.5156C27.5507 19.5422 27.624 19.6078 27.7421 19.7344C27.8353 19.8328 28.0366 20.0453 28.1897 20.2062C28.4925 20.525 28.5391 20.5891 28.569 20.7188C28.5824 20.7812 28.5857 21.2953 28.5824 22.6484C28.5774 24.4203 28.5757 24.4953 28.5458 24.5625C28.5058 24.6516 28.4842 24.6781 28.0483 25.1953C27.7637 25.5312 27.6672 25.6344 27.6073 25.6672C27.556 25.6959 27.4983 25.711 27.4395 25.7112L21.8989 25.7264C21.8666 25.7265 21.8355 25.7389 21.8119 25.761C21.7865 25.7849 21.7719 25.8182 21.7717 25.8532L21.7671 26.6375C21.7637 27.2172 21.7687 27.4891 21.7804 27.5172C21.8103 27.5828 21.8602 27.5937 22.1281 27.5937C22.4027 27.5937 22.4692 27.6078 22.5042 27.6734C22.5424 27.7406 22.5408 28.6344 22.5025 28.6844C22.4409 28.7687 22.4842 28.7656 21.0898 28.7656C19.9767 28.7656 19.792 28.7625 19.7504 28.7422C19.6506 28.6937 19.6506 28.6937 19.6506 28.1844C19.6506 27.8875 19.6572 27.7062 19.6689 27.6828C19.7022 27.6141 19.7438 27.6031 19.995 27.5937C20.213 27.5859 20.2346 27.5828 20.2696 27.55C20.294 27.5271 20.3078 27.4951 20.3079 27.4616L20.3128 24.1312C20.3161 20.3687 20.3261 20.6734 20.203 20.6422C20.1697 20.6328 20.0599 20.625 19.9617 20.625C19.772 20.625 19.7005 20.6062 19.6672 20.5484C19.6406 20.5 19.6456 19.5953 19.6739 19.5484C19.7221 19.4672 19.6556 19.4703 21.4193 19.4688H22.482C22.8021 19.4688 23.0616 19.7282 23.0616 20.0483Z" fill="#0A0A0A"/>
</svg>
