<svg width="20" height="20" viewBox="0 0 20 20" fill="none" xmlns="http://www.w3.org/2000/svg">
<path fill-rule="evenodd" clip-rule="evenodd" d="M20 10.2281C20.0009 9.54675 19.9421 8.86646 19.8244 8.19492H10.2024V12.0462H15.7134C15.4856 13.2891 14.7494 14.3869 13.6756 15.085V17.5849H16.9647C18.8905 15.8447 20 13.2712 20 10.2281Z" fill="#4285F4"/>
<path fill-rule="evenodd" clip-rule="evenodd" d="M10.2024 20C12.9558 20 15.2741 19.1125 16.9647 17.5849L13.6756 15.085C12.7603 15.6933 11.5813 16.0417 10.2024 16.0417C7.54121 16.0417 5.28238 14.2835 4.47471 11.914H1.08642V14.4903C2.81828 17.868 6.34553 19.9997 10.2024 20Z" fill="#34A853"/>
<path fill-rule="evenodd" clip-rule="evenodd" d="M4.47471 11.914C4.04763 10.6725 4.04763 9.328 4.47471 8.08648V5.51016H1.08642C-0.36214 8.33522 -0.36214 11.6653 1.08642 14.4903L4.47471 11.914Z" fill="#FBBC04"/>
<path fill-rule="evenodd" clip-rule="evenodd" d="M10.2024 3.95896C11.6574 3.93552 13.0633 4.47441 14.1164 5.45891L17.0285 2.60479C15.1819 0.904998 12.7356 -0.0282534 10.2024 0.000651949C6.34553 0.000808194 2.81828 2.13261 1.08642 5.51016L4.47471 8.08648C5.28238 5.71719 7.54121 3.95896 10.2024 3.95896Z" fill="#EA4335"/>
</svg>
